<svg id="Layer_1" data-name="Layer 1" xmlns="http://www.w3.org/2000/svg" viewBox="0 0 100 100"><title>ic-</title><g id="_27-text_book" data-name=" 27-text book"><g id="linear_color" data-name="linear color"><path d="M64.33,45.22a.75.75,0,0,0,.76-.75v-3a.76.76,0,0,0-.76-.75H62.07V37.93a.76.76,0,0,0-.76-.75H42.38a3.77,3.77,0,0,0-7.47.75V62.07a3.78,3.78,0,0,0,3.78,3.77h18.6a.76.76,0,0,0,.76-.75V62.82h3.26a.75.75,0,0,0,.76-.75v-9.3h2.26a.76.76,0,0,0,.76-.76V49a.76.76,0,0,0-.76-.76H62.07v-3Zm-2.26-3h1.51v1.51H62.07Zm-1.51-3.52V58.3H42.46V38.69Zm-24.14-.76a2.27,2.27,0,0,1,4.53,0V59.05a3.8,3.8,0,0,0-4.53,0Zm20.12,26.4H38.69A2.26,2.26,0,1,1,41,62.07a.75.75,0,0,0,.75.75H56.54Zm-14.08-3v-1.5h18.1v1.5ZM63.58,49.75v1.51H62.07V49.75Z"/><path d="M44.72,50.76h4A.76.76,0,0,0,49.5,50a.75.75,0,0,0-.76-.75h-4A.74.74,0,0,0,44,50,.75.75,0,0,0,44.72,50.76Z"/><path d="M51,50a.75.75,0,0,0,.75.76H58.3a.76.76,0,0,0,.75-.76.75.75,0,0,0-.75-.75H51.76A.74.74,0,0,0,51,50Z"/><path d="M44.72,53.77h9.55a.76.76,0,1,0,0-1.51H44.72a.76.76,0,0,0,0,1.51Z"/><path d="M44.72,56.79h7.54a.76.76,0,1,0,0-1.51H44.72a.76.76,0,0,0,0,1.51Z"/><path d="M58.3,55.28h-3a.76.76,0,0,0,0,1.51h3a.76.76,0,0,0,0-1.51Z"/><path d="M53.77,41.7h4.59a.75.75,0,0,0,0-1.5H53.77a.75.75,0,1,0,0,1.5Z"/><path d="M53.77,44.72H58.3a.76.76,0,0,0,0-1.51H53.77a.76.76,0,0,0,0,1.51Z"/><path d="M53.77,47.74H58.3a.76.76,0,0,0,0-1.51H53.77a.76.76,0,0,0,0,1.51Z"/><path d="M44.72,47.74h6a.76.76,0,0,0,.76-.76V41a.75.75,0,0,0-.76-.75h-6A.74.74,0,0,0,44,41v6A.75.75,0,0,0,44.72,47.74Zm.75-6H50v4.53H45.47Z"/></g></g></svg>