<svg id="Layer_1" data-name="Layer 1" xmlns="http://www.w3.org/2000/svg" viewBox="0 0 100 100"><title>ic-</title><g id="_01-male" data-name=" 01-male"><g id="linear_color" data-name="linear color"><path d="M64,59.35l-9.57-2.87V54c.2-.13.38-.27.57-.42a8,8,0,0,0,2.72-4c1.67-.5,2.66-3,2.66-4.37a2,2,0,0,0-.54-1.49,1.93,1.93,0,0,0-.65-.41V38.68l4.34-2.16a.9.9,0,0,0,.4-1.2.89.89,0,0,0-.56-.46L50.23,31.29a.94.94,0,0,0-.47,0L36.85,34.83a.89.89,0,0,0-.83.89V42h-.3a.89.89,0,0,0,0,1.78H36v2.08a.89.89,0,1,0,1.78,0V43.75h.3a.89.89,0,1,0,0-1.78h-.3V37.13l3,1.5v4.71a1.93,1.93,0,0,0-.65.41,2,2,0,0,0-.54,1.49c0,1.41,1,3.87,2.66,4.37a8,8,0,0,0,2.72,4c.19.15.37.29.57.42v2.45L36,59.35a3.24,3.24,0,0,0-2.33,3.13v5.37a.89.89,0,0,0,1.78,0V62.48a1.5,1.5,0,0,1,1.06-1.42l.48-.15,12.66,6a.85.85,0,0,0,.76,0l12.66-6,.48.15a1.5,1.5,0,0,1,1.06,1.42v5.37a.89.89,0,0,0,1.78,0V62.48A3.24,3.24,0,0,0,64,59.35ZM42.56,42.68v-4a19.75,19.75,0,0,1,14.88,0v4a21.78,21.78,0,0,0-14.88,0ZM58,47.09V44.94a1.73,1.73,0,0,1,.57.08.83.83,0,0,1,0,.22,3.88,3.88,0,0,1-.6,1.85Zm-8-14L60.66,36l-2.31,1.15a21.41,21.41,0,0,0-16.65,0L39.46,36ZM41.4,45a1.73,1.73,0,0,1,.57-.08v2.15a3.88,3.88,0,0,1-.6-1.85.83.83,0,0,1,0-.22Zm2.35,2.6V44.15a20.08,20.08,0,0,1,12.5,0v3.47a6.14,6.14,0,0,1-3.1,5.15.27.27,0,0,0-.1.06,6.44,6.44,0,0,1-3,1,6.44,6.44,0,0,1-3-1,.27.27,0,0,0-.1-.06A6.14,6.14,0,0,1,43.75,47.62Zm6.25,8A7,7,0,0,0,52.68,55v1.73c-1.84,1.7-3.52,1.7-5.36,0V55A7,7,0,0,0,50,55.65Zm-3.81,2.49A5.75,5.75,0,0,0,50,59.82a5.75,5.75,0,0,0,3.81-1.68l1.5.45L50,64.7l-5.31-6.11Zm-3.38,1,3.74,4.29-7-3.3Zm10.64,4.29,3.74-4.29,3.29,1Z"/><circle cx="53.87" cy="44.94" r="0.89"/><circle cx="46.13" cy="44.94" r="0.89"/><path d="M48.81,49.11H50a.9.9,0,0,0,.24-1.76l.56-1.12a.89.89,0,0,0-1.6-.79L48,47.82a.89.89,0,0,0,.4,1.19A.79.79,0,0,0,48.81,49.11Z"/></g></g></svg>