<svg id="Layer_1" data-name="Layer 1" xmlns="http://www.w3.org/2000/svg" viewBox="0 0 100 100"><title>ic-</title><path d="M40.66,39A3.87,3.87,0,0,0,37.9,37.8h-.2A3.83,3.83,0,0,0,35,39a3.55,3.55,0,0,0-1,2.62L34,43.31a3.7,3.7,0,0,0,3.75,3.48h0a3.69,3.69,0,0,0,3.75-3.48l.08-1.73A3.58,3.58,0,0,0,40.66,39Zm-.37,4.3a2.4,2.4,0,0,1-2.47,2.24h0a2.39,2.39,0,0,1-2.46-2.24l0-.53a5.73,5.73,0,0,0,3.36-1.26,2.89,2.89,0,0,0,1.68,1.18Zm-.8-3a.67.67,0,0,0-.52-.55.65.65,0,0,0-.68.31,3.92,3.92,0,0,1-3,1.47,2.26,2.26,0,0,1,.63-1.6,2.56,2.56,0,0,1,1.83-.77h.2a2.56,2.56,0,0,1,1.83.77,2.3,2.3,0,0,1,.62,1.45A1.53,1.53,0,0,1,39.49,40.22Z"/><path d="M65.7,54.38a3.83,3.83,0,0,0-2.76-1.17h-.2A3.82,3.82,0,0,0,60,54.38,3.52,3.52,0,0,0,59,57l.08,1.73a3.69,3.69,0,0,0,3.75,3.48h0a3.69,3.69,0,0,0,3.75-3.48L66.7,57A3.52,3.52,0,0,0,65.7,54.38Zm-.29,2.56-.08,1.73a2.4,2.4,0,0,1-2.46,2.25h0a2.42,2.42,0,0,1-2.47-2.25l-.08-1.73a2.26,2.26,0,0,1,.65-1.67,2.48,2.48,0,0,1,1.82-.77h.2a2.49,2.49,0,0,1,1.83.77A2.21,2.21,0,0,1,65.41,56.94Z"/><path d="M50.57,40.07a1.79,1.79,0,0,0-2.47,0l-7.17,7.17a.64.64,0,0,1-.45.19H34a3.21,3.21,0,0,0-3.21,3.21v9a1.92,1.92,0,0,0,1.92,1.93,2,2,0,0,0,.64-.11v.75a.64.64,0,0,0,.65.64h7.7a.63.63,0,0,0,.64-.64V51.79a.67.67,0,0,1,.18-.44l8.14-8.76A1.77,1.77,0,0,0,50.57,40.07Zm-.87,1.62h0l-8.17,8.78A1.91,1.91,0,0,0,41,51.79v9.77H34.59V51.93a.65.65,0,1,0-1.29,0v7.7a.64.64,0,1,1-1.28,0v-9A1.92,1.92,0,0,1,34,48.72h6.53a1.93,1.93,0,0,0,1.36-.57L49,41a.52.52,0,0,1,.7,0A.5.5,0,0,1,49.7,41.69Z"/><path d="M37.8,49.36a.64.64,0,0,0-.64.64v7.71a.64.64,0,0,0,.64.64.64.64,0,0,0,.64-.64V50A.64.64,0,0,0,37.8,49.36Z"/><path d="M51.57,54.38a3.83,3.83,0,0,0-2.76-1.17h-.19a3.83,3.83,0,0,0-2.76,1.17,3.47,3.47,0,0,0-1,2.61l.07,1.73a3.69,3.69,0,0,0,3.75,3.48h.05a3.69,3.69,0,0,0,3.75-3.48L52.57,57A3.52,3.52,0,0,0,51.57,54.38Zm-.29,2.56-.07,1.73a2.42,2.42,0,0,1-2.47,2.25h-.05a2.42,2.42,0,0,1-2.47-2.25l-.07-1.73a2.21,2.21,0,0,1,.64-1.67,2.49,2.49,0,0,1,1.83-.77h.19a2.49,2.49,0,0,1,1.83.77A2.21,2.21,0,0,1,51.28,56.94Z"/><path d="M52,62.84H45.4A3.11,3.11,0,0,0,42.29,66v2.67a.65.65,0,0,0,1.29,0V66a1.81,1.81,0,0,1,1.82-1.82H52A1.81,1.81,0,0,1,53.85,66v2.67a.65.65,0,0,0,1.29,0V66A3.11,3.11,0,0,0,52,62.84Z"/><path d="M66.16,62.84H59.53A3.11,3.11,0,0,0,56.42,66v2.67a.65.65,0,0,0,1.29,0V66a1.81,1.81,0,0,1,1.82-1.82h6.63A1.81,1.81,0,0,1,68,66v2.67a.64.64,0,0,0,1.28,0V66A3.1,3.1,0,0,0,66.16,62.84Z"/><path d="M67.37,30.74H44.83a1.91,1.91,0,0,0-1.89,1.92v9.63a.64.64,0,1,0,1.28,0v-7.7H68V50a.62.62,0,0,1-.61.64H45.46a.65.65,0,1,0,0,1.29H67.37A1.92,1.92,0,0,0,69.26,50V32.66A1.91,1.91,0,0,0,67.37,30.74ZM68,33.3H44.22v-.64a.63.63,0,0,1,.61-.64H67.37a.63.63,0,0,1,.61.64Z"/><path d="M66.05,38.92a.64.64,0,0,0-.64.64v9.16a.65.65,0,0,0,1.29,0V39.56A.65.65,0,0,0,66.05,38.92Z"/><path d="M63.49,42.94a.64.64,0,0,0-.65.64v5.14a.65.65,0,0,0,1.29,0V43.58A.64.64,0,0,0,63.49,42.94Z"/><path d="M60.92,41.65a.65.65,0,0,0-.65.64v6.43a.65.65,0,0,0,1.29,0V42.29A.64.64,0,0,0,60.92,41.65Z"/><path d="M58.35,45.5a.64.64,0,0,0-.64.65v2.57a.64.64,0,0,0,.64.64.64.64,0,0,0,.64-.64V46.15A.65.65,0,0,0,58.35,45.5Z"/><path d="M66.41,36a.64.64,0,0,0-.89.18l-2.19,3.29-2-1.52a.64.64,0,0,0-.9.12l-.06.1-2.5,5L55.39,45a.64.64,0,0,0,.77,1l2.57-1.93a.83.83,0,0,0,.2-.22l2.22-4.45,2,1.46a.64.64,0,0,0,.9-.13l0,0,2.57-3.85A.64.64,0,0,0,66.41,36Z"/></svg>