<svg id="Layer_1" data-name="Layer 1" xmlns="http://www.w3.org/2000/svg" viewBox="0 0 100 100"><title>ic-</title><path d="M60.82,45,50.28,40.39a.77.77,0,0,0-.56,0L39.18,45a.7.7,0,0,0,0,1.29L43,47.9v4.38c0,2.37,3.09,4.22,7,4.22s7-1.85,7-4.22V47.9l.7-.31V55.1a.71.71,0,0,0,1.41,0V47l1.68-.73A.7.7,0,0,0,60.82,45ZM50,41.81l8.77,3.8-.69.3-8-1a.71.71,0,1,0-.18,1.4l5.63.7L50,49.41l-8.77-3.8Zm5.62,10.47c0,.67-.54,1.35-1.49,1.88a9.57,9.57,0,0,1-8.26,0c-.95-.53-1.49-1.21-1.49-1.88V48.51l5.34,2.31a.68.68,0,0,0,.56,0l5.34-2.31Z"/><path d="M69.25,37.81H66V35.24A1.28,1.28,0,0,0,64.76,34H53.85A5.11,5.11,0,0,0,50,35.7,5.11,5.11,0,0,0,46.15,34H35.24A1.28,1.28,0,0,0,34,35.24v2.57H30.75a1.28,1.28,0,0,0-1.28,1.28V64.76A1.28,1.28,0,0,0,30.75,66h38.5a1.28,1.28,0,0,0,1.28-1.28V39.09A1.28,1.28,0,0,0,69.25,37.81ZM32,63.48V40.37H34V60.91a1.28,1.28,0,0,0,1.28,1.28H46.15a2.56,2.56,0,0,1,2.22,1.29Zm16.69-3.2v0a5.22,5.22,0,0,0-2.57-.68H36.52V36.52h9.63a2.53,2.53,0,0,1,1.46.46,2.89,2.89,0,0,0,1.65.53h1.48A2.89,2.89,0,0,0,52.39,37a2.53,2.53,0,0,1,1.46-.46h9.63V59.63H53.85a5.22,5.22,0,0,0-2.57.68v0a1,1,0,0,0-1-1h-.64A1,1,0,0,0,48.72,60.28ZM68,63.48H51.63a2.56,2.56,0,0,1,2.22-1.29H64.76A1.28,1.28,0,0,0,66,60.91V40.37H68Z"/></svg>